<?xml version="1.0" standalone="yes"?>

<svg version="1.1" viewBox="0.0 0.0 100.0 100.0" fill="none" stroke="none" stroke-linecap="square" stroke-miterlimit="10" xmlns="http://www.w3.org/2000/svg" xmlns:xlink="http://www.w3.org/1999/xlink"><clipPath id="p.0"><path d="m0 0l100.0 0l0 100.0l-100.0 0l0 -100.0z" clip-rule="nonzero"></path></clipPath><g clip-path="url(#p.0)"><path fill="#000000" fill-opacity="0.0" d="m0 0l100.0 0l0 100.0l-100.0 0z" fill-rule="evenodd"></path><path fill="#e2545e" d="m0 50.0l0 0c0 -27.614237 22.385763 -50.0 50.0 -50.0l0 0c13.260826 0 25.978523 5.267842 35.35534 14.644661c9.376816 9.37682 14.644661 22.094513 14.644661 35.35534l0 0c0 27.614235 -22.385765 50.0 -50.0 50.0l0 0c-27.614237 0 -50.0 -22.385765 -50.0 -50.0z" fill-rule="evenodd"></path><path fill="#ffffff" d="m73.71927 60.85666l-2.6666412 2.6666412l0 0c-0.17681122 0.17681503 -0.41662598 0.27614594 -0.6666794 0.27614594c-0.2500534 0 -0.48986053 -0.0993309 -0.6666794 -0.27614594l-23.71127 -23.711273c-1.9073486E-5 -1.9073486E-5 -1.9073486E-5 -4.9591064E-5 0 -6.484985E-5l4.0 -3.9999352l0 0c1.5258789E-5 -1.9073486E-5 4.5776367E-5 -1.9073486E-5 6.484985E-5 0l23.711205 23.711273l0 0c0.3682022 0.3681984 0.3682022 0.9651642 0 1.3333588z" fill-rule="evenodd"></path><path fill="#ffffff" d="m28.947617 63.5233l-2.6666393 -2.6666412l0 0c-0.17681503 -0.17681503 -0.27614784 -0.41662598 -0.27614784 -0.6666794c0 -0.2500534 0.09933281 -0.48986435 0.27614784 -0.6666794l23.711271 -23.711273c1.9073486E-5 -1.9073486E-5 4.9591064E-5 -1.9073486E-5 6.866455E-5 0l3.9999313 4.0l0 0c1.9073486E-5 1.9073486E-5 1.9073486E-5 4.9591064E-5 0 6.866455E-5l-23.711271 23.711205l0 0c-0.3681965 0.3681984 -0.9651623 0.3681984 -1.3333607 0z" fill-rule="evenodd"></path></g></svg>

